<svg xmlns="http://www.w3.org/2000/svg" xmlns:xlink="http://www.w3.org/1999/xlink" width="96" height="96" x="0" y="0" fill="#34495E" version="1.1" viewBox="0 0 48 48"><g fill="none" stroke="none" stroke-dashoffset="0" stroke-linecap="butt" stroke-linejoin="none" stroke-miterlimit="10" stroke-width="none" font-family="sans-serif" font-size="12" font-weight="normal" mix-blend-mode="normal" text-anchor="start"><g><g><path fill="none" stroke="none" stroke-linejoin="miter" stroke-width="1" d="M0,48l0,-48l48,0l0,48z"/><g id="Слой_1"><g fill="none" stroke="#455a64" stroke-linejoin="round" stroke-width="2"><path d="M27,32l4,3l1,7l3,2"/><path d="M28,26l5,1l1,4l2,2"/><path d="M29,22l5,-2l-3,-5l2,-3"/><path d="M21,32l-4,3l-1,7l-3,2"/><path d="M20,26l-5,1l-1,4l-2,2"/><path d="M19,22l-5,-2l3,-5l-2,-3"/></g><g fill="none" stroke="#4db6ac" stroke-linejoin="miter" stroke-width="2"><path d="M39,4c0,0 -14,1 -14,10"/><path d="M9,4c0,0 14,1 14,10"/></g><path fill="#00695c" stroke="none" stroke-linejoin="miter" stroke-width="1" d="M27.021,20.812c0,1.67 -1.354,3.021 -3.021,3.021l0,0c-1.669,0 -3.021,-1.352 -3.021,-3.021l0,-5.79c0,-1.67 1.352,-3.022 3.021,-3.022l0,0c1.668,0 3.021,1.352 3.021,3.021z"/><path fill="#26a69a" stroke="none" stroke-linejoin="miter" stroke-width="1" d="M24,42c-6,0 -7,-22 -7,-22c0,-1.104 4,-2 7,-2c3,0 7,0.896 7,2c0,0 -1,22 -7,22z"/><path fill="#00897b" stroke="none" stroke-linejoin="miter" stroke-width="1" d="M23,41.773c0.313,0.145 0.646,0.227 1,0.227c0.354,0 0.687,-0.082 1,-0.227l0,-23.739c-0.331,-0.021 -0.665,-0.034 -1,-0.034c-0.335,0 -0.669,0.013 -1,0.034z"/></g><g stroke="none" stroke-linejoin="miter" stroke-width="1"><g fill="#2196f3"><path d="M30,47.72571l0,-20l18,10z"/></g><path fill="red" d="M28.16571,37.72571c0,-5.98361 4.85067,-10.83429 10.83429,-10.83429c5.98361,0 10.83429,4.85067 10.83429,10.83429c0,5.98361 -4.85067,10.83429 -10.83429,10.83429c-5.98361,0 -10.83429,-4.85067 -10.83429,-10.83429z" opacity="0"/></g></g></g></g></svg>