<svg xmlns="http://www.w3.org/2000/svg" xmlns:xlink="http://www.w3.org/1999/xlink" id="Layer_1" width="96" height="96" x="0" y="0" fill="#34495E" version="1.1" viewBox="0 0 48 48" xml:space="preserve"><style type="text/css">.st67{fill:#b39ddb}.st85{fill:#9575cd}.st86{fill:#7454b3}</style><path id="XMLID_1283_" d="M34,12l-6-6h-8l-6,6h-3v28c0,2.2,1.8,4,4,4h18c2.2,0,4-1.8,4-4V12H34z" class="st85"/><g id="XMLID_1279_"><path id="XMLID_1282_" d="M24.5,39h-1c-0.8,0-1.5-0.7-1.5-1.5v-19c0-0.8,0.7-1.5,1.5-1.5h1c0.8,0,1.5,0.7,1.5,1.5v19 C26,38.3,25.3,39,24.5,39z" class="st86"/><path id="XMLID_1281_" d="M31.5,39L31.5,39c-0.8,0-1.5-0.7-1.5-1.5v-19c0-0.8,0.7-1.5,1.5-1.5h0 c0.8,0,1.5,0.7,1.5,1.5v19C33,38.3,32.3,39,31.5,39z" class="st86"/><path id="XMLID_1280_" d="M16.5,39L16.5,39c-0.8,0-1.5-0.7-1.5-1.5v-19c0-0.8,0.7-1.5,1.5-1.5h0 c0.8,0,1.5,0.7,1.5,1.5v19C18,38.3,17.3,39,16.5,39z" class="st86"/></g><path id="XMLID_1278_" d="M11,8h26c1.1,0,2,0.9,2,2v2H9v-2C9,8.9,9.9,8,11,8z" class="st67"/></svg>