<svg xmlns="http://www.w3.org/2000/svg" xmlns:svg="http://www.w3.org/2000/svg" id="Layer_1" width="96" height="96" x="0" y="0" fill="#34495E" enable-background="new 0 0 48 48" version="1.0" viewBox="0 0 48 48" xml:space="preserve"><metadata id="metadata11"/><path id="path26" fill="#a41e11" d="M 43.465668,28.135291 C 41.140772,30.183229 29.096792,38.551993 26.532695,40.811562 23.9686,43.070269 22.544158,43.048194 20.518645,41.411835 18.492875,39.776341 5.6762367,31.026294 3.3674737,29.161856 2.2134767,28.229637 1.6067707,27.443701 1.6067707,26.701041 l 0,-7.4426 c 0,0 16.6858323,-6.138191 19.3797733,-7.771087 2.693685,-1.6333295 3.628203,-1.6921895 5.920574,-0.273086 2.292627,1.4191 15.999736,5.597638 18.265474,7.000294 0,0 -0.0011,6.646277 -0.0011,7.336571 2.57e-4,0.734868 -0.52245,1.542012 -1.7059,2.584158 z"/><path id="path28" fill="#d82c20" d="M 43.465668,20.691389 C 41.140772,22.739328 29.096792,31.10809 26.532695,33.367228 23.9686,35.625934 22.544158,35.60386 20.518645,33.967935 18.493133,32.332005 5.6762367,23.582393 3.3674737,21.717955 1.0587117,19.853519 1.0103077,18.569449 3.2783507,17.068548 5.5461367,15.567651 18.292603,7.1170899 20.986801,5.4837603 23.680484,3.8504307 24.615001,3.7915712 26.907373,5.2111049 29.2,6.6302073 41.172017,14.682605 43.437497,16.08526 c 2.265995,1.402223 2.353068,2.558624 0.02817,4.606131 z"/><polygon id="polygon30" fill="#fff" points="260.63 258.13 255.3 249.27 238.28 247.74 250.98 243.16 247.17 236.13 259.06 240.78 270.27 237.11 267.24 244.38 278.67 248.66 263.93 250.19" transform="matrix(0.25610232,0,0,0.43278494,-42.269705,-94.091828)"/><polygon id="polygon32" fill="#fff" points="232.24 275.77 271.66 269.72 259.75 287.18" transform="matrix(0.25610232,0,0,0.43278494,-42.269705,-94.091828)"/><ellipse id="ellipse34" cx="14.485" cy="18.969" fill="#fff" rx="5.396" ry="3.535"/><polygon id="polygon36" fill="#7a0c00" points="319.42 260.05 296.11 269.26 296.09 250.83" transform="matrix(0.25610232,0,0,0.43278494,-42.269705,-94.091828)"/><polygon id="polygon38" fill="#ad2115" points="296.11 269.26 293.58 270.25 270.28 261.04 296.09 250.83" transform="matrix(0.25610232,0,0,0.43278494,-42.269705,-94.091828)"/><path id="path3" fill="#607d8b" d="m 45.788091,38.72364 c 0.04889,-0.321929 0.09778,-0.643857 0.09778,-1.011775 0,-0.367919 -0.04889,-0.689847 -0.09778,-1.011776 l 2.200079,-1.471673 c 0.195563,-0.137969 0.293344,-0.413908 0.146672,-0.643857 l -2.151189,-3.403243 c -0.146672,-0.229949 -0.391125,-0.321929 -0.635578,-0.18396 l -2.444533,1.057765 C 42.316854,31.641213 41.730166,31.319285 41.045697,31.043346 L 40.801244,28.513908 C 40.752354,28.283959 40.556791,28.1 40.312337,28.1 l -4.204596,0 c -0.244453,0 -0.488907,0.183959 -0.488907,0.413908 l -0.244453,2.529438 c -0.684469,0.275939 -1.320048,0.597867 -1.857845,1.011775 l -2.444533,-1.057765 c -0.244453,-0.09198 -0.537797,0 -0.635578,0.18396 l -2.102298,3.403243 c -0.146672,0.229949 -0.04889,0.505888 0.146672,0.643857 l 2.200079,1.471673 c -0.04889,0.321929 -0.09778,0.643857 -0.09778,1.011776 0,0.367918 0.04889,0.689846 0.09778,1.011775 l -2.297861,1.471673 c -0.195562,0.137969 -0.293344,0.413908 -0.146672,0.643857 l 2.102299,3.403244 c 0.146672,0.229949 0.391125,0.321928 0.635578,0.183959 l 2.444533,-1.057765 c 0.586688,0.413908 1.173376,0.735836 1.857845,1.011775 l 0.244453,2.529438 c 0.04889,0.229949 0.244453,0.413908 0.488907,0.413908 l 4.204596,0 c 0.244453,0 0.488906,-0.183959 0.488906,-0.413908 l 0.244454,-2.529438 c 0.684469,-0.275939 1.320047,-0.597867 1.857845,-1.011775 l 2.444532,1.057765 c 0.244454,0.09198 0.537798,0 0.635579,-0.183959 L 47.98817,40.83917 c 0.146672,-0.229949 0.04889,-0.505888 -0.146672,-0.643857 L 45.788091,38.72364 Z m -7.626943,3.587203 c -2.688986,0 -4.889065,-2.06954 -4.889065,-4.598978 0,-2.529438 2.200079,-4.598979 4.889065,-4.598979 2.688986,0 4.889066,2.069541 4.889066,4.598979 0,2.529438 -2.20008,4.598978 -4.889066,4.598978 z"/><path id="path5" fill="#455a64" d="m 38.161148,32.193091 c -3.226783,0 -5.866878,2.483448 -5.866878,5.518774 0,3.035325 2.640095,5.518773 5.866878,5.518773 3.226784,0 5.866879,-2.483448 5.866879,-5.518773 0,-3.035326 -2.640095,-5.518774 -5.866879,-5.518774 z m 0,7.818263 c -1.368938,0 -2.444532,-1.011776 -2.444532,-2.299489 0,-1.287714 1.075594,-2.299489 2.444532,-2.299489 1.368939,0 2.444533,1.011775 2.444533,2.299489 0,1.287713 -1.075594,2.299489 -2.444533,2.299489 z"/></svg>