<svg xmlns="http://www.w3.org/2000/svg" xmlns:xlink="http://www.w3.org/1999/xlink" width="96" height="96" x="0" y="0" fill="#34495E" version="1.1" viewBox="0 0 48 48"><g fill="none" stroke="none" stroke-dashoffset="0" stroke-linecap="butt" stroke-linejoin="miter" stroke-miterlimit="10" stroke-width="1" font-family="sans-serif" font-size="12" font-weight="normal" mix-blend-mode="normal" text-anchor="start"><g><g><path fill="none" d="M0,48l0,-48l48,0l0,48z"/><g id="Слой_1" fill="#2196f3"><g><path d="M42,13l-9,-8l0,16z"/><path d="M34,15.999c0,0 -18,-0.001 -19,0c-1,0.001 -1,0.997 -1,0.997l0,4.004l-6,0l0,-5.001c0,-3.309 2.691,-5.999 6,-5.999l20,0z"/><path d="M6,35l9,8l0,-16z"/><path d="M14,32.002c0,0 18,0 19,0c1,-0.002 1,-0.998 1,-0.998l0,-4.004l6,0l0,5.002c0,3.308 -2.691,5.998 -6,5.998l-20,0z"/></g></g><g><g fill="#ff3d00"><path d="M48,33.5l-3.5,-3.5l-5.5,5.5l-5.5,-5.5l-3.5,3.5l5.5,5.5l-5.5,5.5l3.5,3.5l5.5,-5.5l5.5,5.5l3.5,-3.5l-5.5,-5.5z"/></g><path fill="red" d="M28.16571,39c0,-5.98361 4.85067,-10.83429 10.83429,-10.83429c5.98361,0 10.83429,4.85067 10.83429,10.83429c0,5.98361 -4.85067,10.83429 -10.83429,10.83429c-5.98361,0 -10.83429,-4.85067 -10.83429,-10.83429z" opacity="0"/></g></g></g></g></svg>