<svg xmlns="http://www.w3.org/2000/svg" xmlns:xlink="http://www.w3.org/1999/xlink" id="Слой_1" width="96" height="96" x="0" y="0" fill="#34495E" enable-background="new 0 0 48 48" version="1.1" viewBox="0 0 48 48" xml:space="preserve"><g><rect width="3" height="10" x="21.318" y="13.818" fill="#FFC107" transform="matrix(0.7071 0.7071 -0.7071 0.7071 19.9895 -10.6232)"/><rect width="3" height="10" x="27.682" y="20.182" fill="#FFC107" transform="matrix(0.7071 0.7071 -0.7071 0.7071 26.3534 -13.2593)"/></g><g><polygon fill="#90A4AE" points="35.637 23.678 40 19.435 40 14 34 8 28.564 8 24.322 12.364"/><rect width="4" height="8.021" x="35.75" y="6.24" fill="#90A4AE" transform="matrix(0.707 0.7072 -0.7072 0.707 18.3104 -23.6945)"/><polygon fill="#90A4AE" points="23.678 35.636 19.435 40 14 40 8 34 8 28.564 12.364 24.322"/><rect width="4" height="8.608" x="8.457" y="33.239" fill="#90A4AE" transform="matrix(0.707 0.7072 -0.7072 0.707 29.6155 3.6051)"/></g><g><rect width="20" height="4.001" x="18.565" y="17.434" fill="#546E7A" transform="matrix(0.7071 0.7071 -0.7071 0.7071 22.1082 -14.5061)"/><rect width="19.999" height="4" x="9.435" y="26.565" fill="#546E7A" transform="matrix(0.7071 0.7071 -0.7071 0.7071 25.8908 -5.376)"/></g></svg>