<svg xmlns="http://www.w3.org/2000/svg" xmlns:svg="http://www.w3.org/2000/svg" id="Слой_1" width="96" height="96" x="0" y="0" fill="#34495E" enable-background="new 0 0 48 48" version="1.1" viewBox="0 0 48 48" xml:space="preserve"><metadata id="metadata31"/><defs id="defs29"><filter id="filter3689" color-interpolation-filters="sRGB"><feColorMatrix id="feColorMatrix3691" values="1 0 0 0 0 0 1 0 0 0 0 0 1 0 0 0 0 0 1 0"/></filter><filter id="filter3693" color-interpolation-filters="sRGB"><feColorMatrix id="feColorMatrix3695" values="1 0 0 0 0 0 1 0 0 0 0 0 1 0 0 0 0 0 1 0"/></filter><filter id="filter3697" color-interpolation-filters="sRGB"><feColorMatrix id="feColorMatrix3699" values="1 0 0 0 0 0 1 0 0 0 0 0 1 0 0 0 0 0 1 0"/></filter></defs><g id="g3" fill="#7c7c7c" fill-opacity="1" filter="url(#filter3689)"><path id="path5" fill="#7c7c7c" fill-opacity="1" d="M42,35c0,2.209-1.791,3-4,3H10c-2.209,0-4-0.791-4-3l3-12c0.219-2.094,1.791-4,4-4h22 c2.209,0,3.688,1.75,4,4L42,35z"/><path id="path7" fill="#7c7c7c" fill-opacity="1" d="M42,27c0,2.209-1.791,3-4,3H10c-2.209,0-4-0.791-4-3l3-12c0.219-2.094,1.791-4,4-4h22 c2.209,0,3.688,1.75,4,4L42,27z"/><path id="path9" fill="#7c7c7c" fill-opacity="1" d="M42,19c0,2.209-1.791,3-4,3H10c-2.209,0-4-0.791-4-3L9,7c0.61-1.662,1.791-3,4-3h22 c2.209,0,3.201,1.087,4,3L42,19z"/></g><g id="g11" fill="#5a5a5a" fill-opacity="1" filter="url(#filter3693)"><path id="path13" fill="#5a5a5a" fill-opacity="1" d="M38,22H10c-2.209,0-4-0.791-4-3v6c0,2.209,1.791,3,4,3h28c2.209,0,4-0.791,4-3v-6 C42,21.209,40.209,22,38,22z"/><path id="path15" fill="#5a5a5a" fill-opacity="1" d="M38,30H10c-2.209,0-4-0.791-4-3v6c0,2.209,1.791,3,4,3h28c2.209,0,4-0.791,4-3v-6 C42,29.209,40.209,30,38,30z"/><path id="path17" fill="#5a5a5a" fill-opacity="1" d="M38,38H10c-2.209,0-4-0.791-4-3v6c0,2.209,1.791,3,4,3h28c2.209,0,4-0.791,4-3v-6 C42,37.209,40.209,38,38,38z"/></g></svg>