<svg xmlns="http://www.w3.org/2000/svg" xmlns:xlink="http://www.w3.org/1999/xlink" id="Layer_1" width="96" height="96" x="0" y="0" enable-background="new 0 0 48 48" version="1.1" viewBox="0 0 48 48" xml:space="preserve"><linearGradient id="SVGID_1_" x1="24" x2="24" y1="658" y2="618.146" gradientTransform="matrix(1 0 0 -1 0 662)" gradientUnits="userSpaceOnUse"><stop offset="0" stop-color="#42BCE8"/><stop offset="1" stop-color="#23A7DC"/></linearGradient><circle cx="24" cy="24" r="20" fill="url(#SVGID_1_)"/><path fill="#FFF" d="M34.176,14.811l-3.817,19.492c0,0-0.534,1.352-2.002,0.703l-8.809-6.84l-3.203-1.568l-5.392-1.838 c0,0-0.828-0.297-0.908-0.946c-0.08-0.649,0.934-1,0.934-1l21.436-8.516C32.414,14.297,34.176,13.513,34.176,14.811z"/><path fill="#D2E5F1" d="M18.87,34.083c0,0-0.257-0.024-0.578-1.052c-0.32-1.027-1.949-6.434-1.949-6.434L29.29,18.27 c0,0,0.747-0.46,0.721,0c0,0,0.133,0.081-0.267,0.46s-10.171,9.273-10.171,9.273"/><path fill="#B5CFE4" d="M22.925,30.788l-3.484,3.217c0,0-0.272,0.209-0.57,0.078l0.667-5.976"/></svg>